<svg xmlns="http://www.w3.org/2000/svg" xmlns:xlink="http://www.w3.org/1999/xlink" version="1.1" x="0px" y="0px" viewBox="0 0 64 80" enable-background="new 0 0 64 64" xml:space="preserve" id="svg-1"><g id="g-2"><path fill="#000000" d="M43.922,51.766H26.945c-0.815,0-1.477,0.663-1.477,1.477c0,0.815,0.663,1.477,1.477,1.477h16.977   c0.815,0,1.477-0.663,1.477-1.477C45.399,52.429,44.736,51.766,43.922,51.766z" fill-opacity="1" id="path-3"></path><path fill="#000000" d="M60.649,5.565H10.218c-1.825,0-3.31,1.485-3.31,3.31v6.203c0,0.789,0.642,1.431,1.431,1.431h0.092   c0.789,0,1.431-0.642,1.431-1.431V8.874c0-0.196,0.16-0.356,0.356-0.356h50.461c0.177,0,0.326,0.15,0.326,0.327v3.873   c0,0.815,0.663,1.477,1.477,1.477c0.091,0,0.183-0.008,0.273-0.025c0.686-0.126,1.204-0.785,1.204-1.534V8.874   C63.959,7.049,62.474,5.565,60.649,5.565z" fill-opacity="1" id="path-4"></path><path fill="#000000" d="M62.781,21.029c-0.099-0.02-0.2-0.03-0.299-0.03c-0.815,0-1.477,0.663-1.477,1.477v23.552   c0,0.18-0.146,0.327-0.326,0.327H27.396c-0.814,0-1.477,0.663-1.477,1.477c0,0.815,0.663,1.477,1.477,1.477h33.283   c1.809,0,3.281-1.472,3.281-3.281V22.531C63.959,21.796,63.464,21.165,62.781,21.029z" fill-opacity="1" id="path-5"></path><g id="g-6"><path fill="#000000" d="M3.23,51.42h15.349c0.828,0,1.502-0.674,1.502-1.502s-0.674-1.502-1.502-1.502H3.23    c-0.102,0-0.185-0.083-0.185-0.184V21.921c0-0.388,0.316-0.704,0.705-0.704h16.623c0.389,0,0.704,0.316,0.704,0.704    c0,0.828,0.674,1.502,1.502,1.502c0.828,0,1.502-0.674,1.502-1.502c0-2.045-1.664-3.708-3.709-3.708H3.75    c-2.046,0-3.709,1.664-3.709,3.708v26.311C0.041,49.99,1.471,51.42,3.23,51.42z" fill-opacity="1" id="path-7"></path><path fill="#000000" d="M22.58,30.225c-0.828,0-1.502,0.674-1.502,1.502v22.999c0,0.389-0.316,0.705-0.704,0.705H3.75    c-0.389,0-0.705-0.316-0.705-0.705c0-0.828-0.674-1.502-1.502-1.502s-1.502,0.674-1.502,1.502c0,2.045,1.664,3.709,3.709,3.709    h16.623c2.045,0,3.709-1.664,3.709-3.709V31.727C24.082,30.899,23.408,30.225,22.58,30.225z" fill-opacity="1" id="path-8"></path></g><path fill="#000000" d="M9.867,22.564c-0.732,0-1.327,0.596-1.327,1.327s0.596,1.327,1.327,1.327h4.855   c0.732,0,1.328-0.595,1.328-1.327s-0.596-1.327-1.328-1.327H9.867z" fill-opacity="1" id="path-9"></path><circle fill="#000000" cx="22.356" cy="26.253" r="1.446" fill-opacity="1" id="circle-10"></circle><circle fill="#000000" cx="62.448" cy="16.889" r="1.512" fill-opacity="1" id="circle-11"></circle><circle fill="#000000" cx="35.434" cy="43.335" r="1.511" fill-opacity="1" id="circle-12"></circle><circle fill="#000000" cx="12.294" cy="53.267" r="1.511" fill-opacity="1" id="circle-13"></circle></g><text x="0" y="79" fill="#000000" font-size="5px" font-weight="bold" font-family="'Helvetica Neue', Helvetica, Arial-Unicode, Arial, Sans-serif" fill-opacity="0" id="text-14" type="solidColor">Created by Delwar Hossain</text><text x="0" y="84" fill="#000000" font-size="5px" font-weight="bold" font-family="'Helvetica Neue', Helvetica, Arial-Unicode, Arial, Sans-serif" fill-opacity="0" id="text-15" type="solidColor">from the Noun Project</text></svg>
