<svg xmlns="http://www.w3.org/2000/svg" version="1" viewBox="0 0 100 125" id="svg-1">
  <path fill-rule="evenodd" clip-rule="evenodd" d="M77 22l2 1v2l-2-1a318 318 0 0 1-5-5l5 3zM57 7l-1 4a97 97 0 0 1-2 6v-2a35 35 0 0 0 1-6V8l-1 1-6 5-7 5a82 82 0 0 0-11 7v2l-1 1-3 2-2 2 3-1 2-2v2h-1l-4 3-4 5h2l6-4h1l-1 1-7 5-2 2v3l6-4 7-4-1 1-1 1-5 3a393 393 0 0 0-6 6l1 2c2 0 4-2 6-4l7-4v1h-1l-8 6-1 1-2 1v2l1 2h2a86 86 0 0 1 9-7h2l-1 1v1a113 113 0 0 0-9 5l-1 2 1 3 3-2a49 49 0 0 1 4-3v-1 1l-1 1-2 2-1 1-1 1v2l1 1 2-1 5-4 3-1 3-3-1 2-2 1-3 2-3 2-1 1-1 2 2 2 3-2 8-6h1l-2 2-3 2-3 2-2 3 3 2c1 0 2 0 3-2a102 102 0 0 1 8-6v1l-5 3a345 345 0 0 0-4 6l1 1h2l6-5 1-1 6-4-6 4-2 2a53 53 0 0 0-4 4l-1 2h3l2-2a346 346 0 0 1 1 1h7l1-1a1798 1798 0 0 1 1 0h5l2-2 1-1 2 1 1-1 3-4 2-5c0-3 0-6-2-8-1-2-2-4-5-6l-5-3-5-3-2-1c-3 2-6 2-9 0l-4-3-1-4 1-1 1 1 2 5 5 2 5-1 2-1h2c1-1 3-1 4 1l5 3a177 177 0 0 0 6 3l1-1 4-2c1 0 2-1 1-2v-6l-1-4-3-3c-6-2-9-5-12-7l-7-4 1-1 5 3 13 8c4 1 5 3 5 7l1 7v1l-3 3-4 2h-2l-2-1a187 187 0 0 0-13-5l2 1 9 6c3 2 5 5 6 8v6l-2 6-3 4-5 3a26 26 0 0 1 1 4h4l3 1h4c4 2 6 4 6 7v2l1 2v1l-1 1h-2a3624 3624 0 0 0-45 1l-12 1h-2v-2c0-2 0-4 2-6l4-3a59 59 0 0 1 12-3l1-1 1-3-2-2a248 248 0 0 0-12-9l-3-3-3-3-2-6-1-6 1-9c2-6 6-11 13-16a118 118 0 0 1 11-7 47 47 0 0 0 11-8V6l1-1 2 2zm-6 0l-1 1-4 3-4 2h-1l1-1a20 20 0 0 0 7-6l2-1v2zm9 18l2 1v3h-4c-2 0-3-1-3-2v-2h5zm-4 2h4-4zm26 1h2v2h-1l-1-1v-1zm-1 32l-2 4v-3l1-3-1-3v-3l1 2 1 2v4zm-2 11l-2 2 1-2 2-3-1 3zm-17 6l-2-1a131 131 0 0 0-16 1l-1 1-1 1 1 1h5a125 125 0 0 0 15-1l-1-2zm-1 4l-2 1a95 95 0 0 0-13 11l3-1 4-1 1-2 2-1 8-7h-3zm4 5l-1 1-2 2-3 3h5l2-1a125 125 0 0 1 10-9l-3-1-2 1-2 1-3 2-1 1zm5-5h-3l-2 1a331 331 0 0 0-12 10h3l2-1 3-2 3-3 2-1c1-1 1-2 3-2v-1l1-1zm-19 2l-8 6-4 4 5-1 3-3 11-8c-2 0-4 0-7 2zm19 8l2-2a35 35 0 0 1 5-4h2a286 286 0 0 0-6 6h2l2-1 2-2 1-2-1-3-2-1-1 1-2 2-3 3-4 3h3zm7 0h4v-3l-2 1-2 2zM37 15h1v1l-5 2v-1l4-2zm-5 41l2-1 2-1-4 2zm0 18l-1 1-1-1-6-4-4-3-3-3v-2l2 1c1 2 2 4 5 5a189 189 0 0 0 8 6zm-9 7l-4 5c-1 1-2 2-1 3l1 2-3-1v-3l5-5 2-1zm0 12v1h1l1-1a217 217 0 0 1 13-10c-2 0-4 0-6 2a74 74 0 0 0-9 8zm6 1l2-1 14-11-7 1-1 2-2 1a582 582 0 0 0-6 8zm-2-6l5-4-6 2c-2 2-2 3-2 5l3-3zm22-4l2-3-4 1-7 5a309 309 0 0 0-7 6c2 1 4 0 6-1a90 90 0 0 1 10-8z" id="path-2" fill-opacity="1" type="solidColor" fill="#fbf7ff"></path>
  <text y="115" font-size="5" font-weight="bold" font-family="'Helvetica Neue', Helvetica, Arial-Unicode, Arial, Sans-serif" id="text-3" fill-opacity="0" type="solidColor" fill="#000000">
    Created by Saeful Muslim
  </text>
  <text y="120" font-size="5" font-weight="bold" font-family="'Helvetica Neue', Helvetica, Arial-Unicode, Arial, Sans-serif" id="text-4" fill-opacity="0" type="solidColor" fill="#000000">
    from the Noun Project
  </text>
</svg>
