<svg xmlns="http://www.w3.org/2000/svg" xmlns:xlink="http://www.w3.org/1999/xlink" version="1.1" x="0px" y="0px" viewBox="0 0 200 250" enable-background="new 0 0 200 200" xml:space="preserve" id="svg-1"><g id="g-2"><g id="g-3"><g id="g-4"><rect x="96.579" y="16.508" fill="#000000" width="7.733" height="6.691" fill-opacity="1" id="rect-5"></rect><rect x="83.949" y="176.818" fill="#000000" width="32.987" height="6.691" fill-opacity="1" id="rect-6"></rect><path fill="#000000" d="M140.401,200H62.275c-9.454,0-17.146-7.685-17.146-17.129v-19.212h6.691v19.212     c0,5.753,4.689,10.438,10.454,10.438h78.126c5.755,0,10.438-4.685,10.438-10.438v-19.212h6.691v19.212     C157.531,192.315,149.847,200,140.401,200z" fill-opacity="1" id="path-7"></path><path fill="#000000" d="M157.531,147.316h-6.691V17.144c0-5.765-4.684-10.452-10.438-10.452H62.275     c-5.765,0-10.454,4.688-10.454,10.452v130.172h-6.691V17.144C45.129,7.691,52.821,0,62.275,0h78.126     c9.445,0,17.13,7.69,17.13,17.144V147.316z" fill-opacity="1" id="path-8"></path><rect x="48.479" y="33.021" fill="#000000" width="105.704" height="6.691" fill-opacity="1" id="rect-9"></rect><rect x="48.479" y="160.313" fill="#000000" width="105.704" height="6.691" fill-opacity="1" id="rect-10"></rect></g><g id="g-11"><path fill="#000000" d="M83.054,70.939H60.005V47.891h23.049V70.939z M66.697,64.248h9.665v-9.666h-9.665V64.248z" fill-opacity="1" id="path-12"></path><path fill="#000000" d="M142.659,70.939h-23.048V47.891h23.048V70.939z M126.303,64.248h9.665v-9.666h-9.665V64.248z" fill-opacity="1" id="path-13"></path><path fill="#000000" d="M112.855,70.939H89.808V47.891h23.048V70.939z M96.499,64.248h9.665v-9.666h-9.665V64.248z" fill-opacity="1" id="path-14"></path><path fill="#000000" d="M83.054,100.741H60.005V77.693h23.049V100.741z M66.697,94.05h9.665v-9.666h-9.665V94.05z" fill-opacity="1" id="path-15"></path><path fill="#000000" d="M112.855,100.741H89.808V77.693h23.048V100.741z M96.499,94.05h9.665v-9.666h-9.665V94.05z" fill-opacity="1" id="path-16"></path></g><g id="g-17"><rect x="112.484" y="129.106" fill="#000000" width="7.435" height="6.691" fill-opacity="1" id="rect-18"></rect><rect x="97.614" y="129.106" fill="#000000" width="7.435" height="6.691" fill-opacity="1" id="rect-19"></rect><rect x="82.744" y="129.106" fill="#000000" width="7.435" height="6.691" fill-opacity="1" id="rect-20"></rect></g></g><g id="g-21"><path fill="#000000" d="M179.714,167.005H21.602L3.797,155.489l17.805-11.513h158.112V167.005z M23.577,160.313h149.446v-9.646    H23.577l-7.457,4.821L23.577,160.313z" fill-opacity="1" id="path-22"></path><path fill="#000000" d="M184.538,167.005h-11.516v-23.028h11.516c3.075,0,5.967,1.196,8.142,3.372    c2.174,2.172,3.371,5.064,3.371,8.141c0,3.075-1.197,5.968-3.371,8.141C190.5,165.808,187.609,167.005,184.538,167.005z     M179.714,160.313h4.824c1.286,0,2.499-0.503,3.412-1.418c0.908-0.905,1.409-2.117,1.409-3.406c0-1.29-0.501-2.501-1.41-3.41    c-0.912-0.908-2.123-1.411-3.411-1.411h-4.824V160.313z" fill-opacity="1" id="path-23"></path></g><g id="g-24"><rect x="6.46" y="73.918" fill="#000000" width="15.23" height="6.692" fill-opacity="1" id="rect-25"></rect><rect x="21.69" y="101.182" fill="#000000" width="16.38" height="6.691" fill-opacity="1" id="rect-26"></rect><rect x="21.69" y="114.806" fill="#000000" width="16.38" height="6.691" fill-opacity="1" id="rect-27"></rect><rect x="6.46" y="87.54" fill="#000000" width="31.61" height="6.692" fill-opacity="1" id="rect-28"></rect><rect x="21.69" y="46.653" fill="#000000" width="16.38" height="6.691" fill-opacity="1" id="rect-29"></rect><rect x="21.69" y="60.283" fill="#000000" width="16.38" height="6.691" fill-opacity="1" id="rect-30"></rect><rect x="6.46" y="33.021" fill="#000000" width="31.61" height="6.691" fill-opacity="1" id="rect-31"></rect></g><g id="g-32"><rect x="180.973" y="73.907" fill="#000000" width="15.23" height="6.691" fill-opacity="1" id="rect-33"></rect><rect x="164.593" y="46.642" fill="#000000" width="16.38" height="6.691" fill-opacity="1" id="rect-34"></rect><rect x="164.593" y="33.021" fill="#000000" width="16.38" height="6.691" fill-opacity="1" id="rect-35"></rect><rect x="164.593" y="60.283" fill="#000000" width="31.61" height="6.691" fill-opacity="1" id="rect-36"></rect><rect x="164.593" y="101.17" fill="#000000" width="16.38" height="6.691" fill-opacity="1" id="rect-37"></rect><rect x="164.593" y="87.54" fill="#000000" width="16.38" height="6.692" fill-opacity="1" id="rect-38"></rect><rect x="164.593" y="114.806" fill="#000000" width="31.61" height="6.691" fill-opacity="1" id="rect-39"></rect></g></g><text x="0" y="215" fill="#000000" font-size="5px" font-weight="bold" font-family="'Helvetica Neue', Helvetica, Arial-Unicode, Arial, Sans-serif" fill-opacity="0" id="text-40" type="solidColor">Created by Maxim Basinski</text><text x="0" y="220" fill="#000000" font-size="5px" font-weight="bold" font-family="'Helvetica Neue', Helvetica, Arial-Unicode, Arial, Sans-serif" fill-opacity="0" id="text-41" type="solidColor">from the Noun Project</text></svg>
