<svg xmlns="http://www.w3.org/2000/svg" version="1" viewBox="0 0 100 125" id="svg-1">
  <path fill-rule="evenodd" clip-rule="evenodd" d="M29 94h-6 6zm0-19l-3 2-1 2a157 157 0 0 0 0 10l1 1 1-1v-4c0-1 1-3 3-3l5-3-3-6-3 2zm-2-3l-1 1-1-2h1l1 1zm-5-20v1a73 73 0 0 0 3 15h-1v-1l-3-12 1-3zm27 6l-2 1-2 2 1 1 2 2 1-1 1-1v-2l-1-2zm-5-13l-1 4-1-2v-3l1-2h3l-2 3zm5-5c0 1-1 2-2 1v-1h2zM29 23v1l-2 3-1 3-1 1h-2l1-1 1-2 1-3 3-2zm15 2l-1-4 2-2-1 6zm-5-3h-1l1-2 1 1-1 1zm9-14h2v16h-1l-1-8V8zm-3 1l2-1v1l-3 4-2 4h-2l1-1 2-4 2-3zm34 73l-1 2v-2l1-3v3zm-26 8v1h-4a52 52 0 0 0-6-1l1-1c3-1 7 0 9 1zm-1-28l-1 2-2 1c-2 1-3 0-4-1l-1-2v-2l1-1 2-2 2-1v2c2 0 3 2 3 4zm13 10l-1 3-2 2 1 2 3 2 2 2v7l1 1 2-1 2-9-1-3-7-6zm11 1v2h-1l-2-3-3-2-1-1 1-1 6 5zm-2-36l1-2v3l-2 2 1-3zm-20 2l3 6-3 6c-2 3-4 4-6 3-3 0-5 0-7-2l-2-6 3-6 6-3 6 2zm0 2l-3-2h-3c-2 0-5 1-7 4l-1 2 3 6 5 2c2 0 3-1 5-3s2-4 2-5l-1-4zm14-19a146 146 0 0 1-8-13l3 3 8 12 2 4-1 2-1-1-3-7zM52 8l-1-1h-5l-1-1 1-1 5 1 6 4a79 79 0 0 1 11 20l3 9a70 70 0 0 1-4 29l-1 3 2 2a78 78 0 0 0 4 3c3 2 4 5 2 9v2l-1 2v2l-4 2c-2-1-3-2-3-4v-2c0-3-1-5-4-7h-1l-1 1-4 6-3 1a302 302 0 0 1-9-2l1-1-1-1a74 74 0 0 1-7-11l1 1a465 465 0 0 1 10 12h3l-1-2a151 151 0 0 1-6-9v-2l5 7 4 6 3-3-2-3-4-6-1-1v-2l4 5 4 6 1-3-1-3a112 112 0 0 0-4-5v-1l6 8c2-2 2-3 1-5l-2-3-1-2-1-1c3 2 5 4 6 7v-6l-3-6 3 3 2 4 1-3-4-7c2 1 3 3 4 6v1c3-3 3-6 1-9l-2-3 2 2 2 2c1-3 1-5-1-6l-1-1 1-1 1 2h1c1-2 0-4-2-5h2c1-8-1-15-4-21l-1-1h-1a152 152 0 0 1-18 4c-4 1-8-1-12-3l-2 3-1 2a47 47 0 0 0 2 38v3l2 1 2 3a129 129 0 0 1 4 6l3 3v1h-1l-2-1-1-1-3-3-4 1c-2 1-3 2-3 4v4c0 1-1 2-2 1l-3-1c-1 0-2 0-2-2l1-9c0-2 1-4 3-4l1-1 1-1 2-2v-2c-6-12-6-25-2-38l2-3 5-9 6-9 1-2 2-1v2l-2 3a697 697 0 0 0-8 12l2 1c3 2 7 3 12 2a84 84 0 0 0 14-3l1-2a206 206 0 0 0-8-11l-3-3a46 46 0 0 1 5 13v1h-1c0-3-2-7-4-11V8z" id="path-2" fill-opacity="1" type="solidColor" fill="#fbf7ff"></path>
  <text y="115" font-size="5" font-weight="bold" font-family="'Helvetica Neue', Helvetica, Arial-Unicode, Arial, Sans-serif" id="text-3" fill-opacity="0" type="solidColor" fill="#000000">
    Created by Saeful Muslim
  </text>
  <text y="120" font-size="5" font-weight="bold" font-family="'Helvetica Neue', Helvetica, Arial-Unicode, Arial, Sans-serif" id="text-4" fill-opacity="0" type="solidColor" fill="#000000">
    from the Noun Project
  </text>
</svg>
