<svg xmlns="http://www.w3.org/2000/svg" version="1" viewBox="0 0 100 125" id="svg-1">
  <path fill-rule="evenodd" clip-rule="evenodd" d="M53 9l2 1 1 2v1l-3 11c-1 2-2 3-4 3l-9 1-3-1-2-3v-2l-1-2v-1l-1-2v-5l1-2a150 150 0 0 1 19-2v1h-3l-6 1a194 194 0 0 0-9 2v5h1l2-2 2-2v2l-2 2c-2 1-2 3-1 5l4-4 4-4-1 2-6 7c-1 1-1 1 1 2h2l3-4 2-2 3-3-2 3a1220 1220 0 0 0-5 6c2 1 5 0 8-1l2-2 1-3v-3c2-2 1-4 0-7zm5 15a307 307 0 0 1 4-8l-2 5-1 3-1 1v-1zm3 6l-1-1v-1h1l1 1 5 5a30 30 0 0 1 6 6l-1 1-1-1-5-5-5-5zm-4 1a175 175 0 0 1 16 19l-1 5-2 4a41 41 0 0 1-2 5l-1 1v-2l1-2-2 3v2l1 5-2 4-6 8-8 10-1 1-1 1-1-1h1l5-8a798 798 0 0 1 11-13v-7a686 686 0 0 0-18-36h-6l-2 2a192 192 0 0 1 0 8v-1 1c-2 2-3 5-3 9l-1 1-1 5-2 5h2l-2 2-1 3a187 187 0 0 0-2 6l2-2 2-2a87 87 0 0 1 8-7l-1 2-1 1a193 193 0 0 0-9 10l1 2a54 54 0 0 0 11 13 204 204 0 0 0 12-15v2h-1a940 940 0 0 0-10 14l4 4v2l-1-1a1299 1299 0 0 0-17-19c-1-2-2-5-1-7a310 310 0 0 0 10-38l3-1 7-1 3 2 2 5 1-1v-3l-2-1 1-1h1l2 1 1 1zm1 5v1l-2 3 1 4 2-2 1-3c1-1 0-2-1-3h-1zm-1-2h-2l-1 2 1 3 3-3-1-2zm3 13v-1l3-4v-2h-2l-2 2-2 2a188 188 0 0 0 8 19l1-2a429 429 0 0 0 5-11l-1 1-1 1-1 1-1 1 1-2 1-1 1-2-1-2-1-1-1 1-4 5 1-3 1-2 2-3-3-2-2 3a275 275 0 0 0-2 2zm16-4l1 1 1 1v2l-2-1-1-2 1-1zm-14 9zm5 2l-1 3-2 2c0-2 1-3 3-5zm0 27a121 121 0 0 1-6 7v-1l2-2a477 477 0 0 0 7-9v1l-3 4zm-15 4l-4 6 3-6c1-3 3-5 5-6l-4 6zM41 7L31 9l-1-1V7h1l12-2-2 2zm8 9v-1h1v1h-1zm0 5l-2 3 2-3zM34 36l-1 3a241 241 0 0 0-4 15l-1 1h-1v-1l1-1v-2l2-6a279 279 0 0 1 4-10v1zm5 9l4-4-3 4-3 4 2-4zm-1 10l3-3-6 6 3-3zm8 17v1l-4 5-3 4h-1l5-7 1-1 1-1 1-1zm-3-5l-9 11 4-6 5-5zm-17-6a80 80 0 0 1-2 6l1 5c-3-2-4-3-3-5l1-3 1-4h1l1 1z" id="path-2" fill-opacity="1" type="solidColor" fill="#fbf7ff"></path>
  <text y="115" font-size="5" font-weight="bold" font-family="'Helvetica Neue', Helvetica, Arial-Unicode, Arial, Sans-serif" id="text-3" fill-opacity="0" type="solidColor" fill="#000000">
    Created by Saeful Muslim
  </text>
  <text y="120" font-size="5" font-weight="bold" font-family="'Helvetica Neue', Helvetica, Arial-Unicode, Arial, Sans-serif" id="text-4" fill-opacity="0" type="solidColor" fill="#000000">
    from the Noun Project
  </text>
</svg>
