<svg xmlns="http://www.w3.org/2000/svg" xmlns:xlink="http://www.w3.org/1999/xlink" version="1.1" x="0px" y="0px" viewBox="0 0 64 80" xml:space="preserve" id="svg-1"><g id="g-2"><path d="M60.176,17.708L57,17.219V5H32V1h-6v4H1v40h10.685l-5,18h8.075l2.222-8h24.036l2.222,8h8.075l-5-18H57V24.781l3.176-0.489   C61.812,24.041,63,22.656,63,21S61.812,17.959,60.176,17.708z M28,3h2v2h-2V3z M13.24,61H9.315l4.444-16h3.925L13.24,61z    M17.538,53l0.556-2H34v-2H18.649l1.111-4h18.48l1.111,4H36v2h3.907l0.556,2H17.538z M48.685,61H44.76l-4.444-16h3.925L48.685,61z    M55,43h-9.24h-8.075H20.315H12.24H3V7h23h6h23v9.911l-2.371-0.365C50.271,16.184,47.867,16,45.482,16H20.204   c-0.655-0.272-2.72-1-6.204-1c-5.418,0-9.605,5.156-9.781,5.375L3.72,21l0.499,0.625C4.395,21.844,8.582,27,14,27   c3.484,0,5.549-0.728,6.204-1h25.278c2.385,0,4.789-0.184,7.146-0.546L55,25.089V43z M14,25c-3.439,0-6.451-2.736-7.658-4   c1.207-1.264,4.219-4,7.658-4c2.545,0,4.206,0.424,5,0.688v6.623C18.203,24.576,16.543,25,14,25z M59.871,22.316l-7.547,1.161   C50.068,23.824,47.766,24,45.482,24H21v-6h24.482c2.283,0,4.586,0.176,6.842,0.523l7.547,1.161C60.525,19.785,61,20.338,61,21   S60.525,22.215,59.871,22.316z" id="path-3"></path><rect x="51" y="39" width="2" height="2" id="rect-4"></rect><rect x="51" y="35" width="2" height="2" id="rect-5"></rect><rect x="47" y="39" width="2" height="2" id="rect-6"></rect><rect x="43" y="39" width="2" height="2" id="rect-7"></rect><rect x="47" y="35" width="2" height="2" id="rect-8"></rect><rect x="51" y="31" width="2" height="2" id="rect-9"></rect></g><text x="0" y="79" fill="#000000" font-size="5px" font-weight="bold" font-family="'Helvetica Neue', Helvetica, Arial-Unicode, Arial, Sans-serif" fill-opacity="0" id="text-10" type="solidColor">Created by Eucalyp</text><text x="0" y="84" fill="#000000" font-size="5px" font-weight="bold" font-family="'Helvetica Neue', Helvetica, Arial-Unicode, Arial, Sans-serif" fill-opacity="0" id="text-11" type="solidColor">from the Noun Project</text></svg>
