<?xml version="1.0" encoding="UTF-8"?> <svg xmlns="http://www.w3.org/2000/svg" width="387" height="382" viewBox="0 0 387 382" fill="none"> <path d="M360.223 216.726C346.259 307.442 260.098 369.477 167.76 355.264C75.4219 341.051 11.9038 255.977 25.8671 165.261C39.8304 74.5452 125.992 12.5105 218.33 26.7235C310.668 40.9364 374.186 126.01 360.223 216.726Z" stroke="url(#paint0_linear)"></path> <path d="M236.506 250.268C190.054 300.663 227.701 346.145 228.223 349.201C237.368 345.648 259.313 339.303 273.925 342.346C292.191 346.15 320.075 345.481 334.466 309.994C303.152 332.954 309.342 299.181 266.622 299.551C232.446 299.846 227.081 330.836 228.67 346.294C223.701 334.615 226.364 306.054 276.763 285.237C339.762 259.216 339.319 220.454 338.056 170.651C324.93 217.247 282.957 199.872 236.506 250.268Z" fill="url(#paint1_linear)"></path> <path d="M279.72 250.35C247.945 259.409 230.461 287.144 224.029 316.356C236.329 260.494 252.045 247.682 274.595 246.251C306.882 244.201 320.799 227.808 331.834 207.679C323.893 222.163 318.214 239.377 279.72 250.35Z" fill="white"></path> <defs> <linearGradient id="paint0_linear" x1="315.886" y1="414.005" x2="18.3862" y2="137.505" gradientUnits="userSpaceOnUse"> <stop offset="0.0124519" stop-color="#5A0CA8"></stop> <stop offset="1" stop-color="#FFCC00"></stop> </linearGradient> <linearGradient id="paint1_linear" x1="210.702" y1="353.45" x2="443.472" y2="220.611" gradientUnits="userSpaceOnUse"> <stop stop-color="#5A0CA8"></stop> <stop offset="1" stop-color="#FFCC00" stop-opacity="0.77"></stop> </linearGradient> </defs> </svg> 