<svg xmlns="http://www.w3.org/2000/svg" version="1" viewBox="0 0 100 125" id="svg-1">
  <path fill-rule="evenodd" clip-rule="evenodd" d="M78 22a358 358 0 0 1-22-4c-5-1-10 0-14 3A264 264 0 0 0 9 49l-2 3v3l3-3 3-3v2l-2 1-1 2-2 3c0 1 0 2 2 3l3-3 3-4-1 3a365 365 0 0 1-4 5l3 4 1 2c2-5 5-7 7-9l-4 5-2 4 2 4 7 8 6-9 5-9-1 3a88 88 0 0 1-8 12l-1 4 8-6 1-2 3-6a149 149 0 0 1 5-5l-2 3-1 2-3 5 4-2 4-3 1-1 2-5a460 460 0 0 0 0 3l5-3 4-4 1-3 3-3-2 4-2 3 6-4 1-3a253 253 0 0 1 2-1l-1 2 3-2 1-3v-2l1-1v5l-3 4-17 12a491 491 0 0 0-20 17h2l3-1 2-2 6-4a190 190 0 0 1 16-13l2-1v-2h2l1-1 8-6 2-3 1-5v-3l1-1v-1l-2-1h-1l-1 2v1l-1 1v-4l-1-1h-2l-1 1-1 1c-2 1-4 0-6-1s-3-3-3-5v-3l2-2 3-2 3 1h9l4 1v-3l1-1 1 1v2l1 3 5 5 2 7c2 5 2 8 1 12s-3 8-6 10l-8 5-3 1h-4l-5-1c-2 0-3-1-4-3h-3L44 75l-9 6-2 1c-2 1-4 2-5 1l-4-2A215 215 0 0 1 5 55c0-2 0-4 2-6a144 144 0 0 1 28-25 74 74 0 0 1 12-8h5l11 2 13 2h2l1 1-1 1zm8 1l-1 4-1 1-1-1 2-5h1v1zM59 13l-2 1-9-1h-1v-1a167 167 0 0 1 12 1zm4 14h-3l-1 3c0 2 0 2 2 2l-1 1v2l3 1h3c3-2 6-2 10 0l3 2c2 1 3 3 4 6v8c-2 6-5 9-9 11h-6l-6-2h-1l-1 1v3c3 3 7 3 11 2 3 0 7-2 10-4 4-3 6-7 7-12 1-7-2-13-7-19-2-3-4-4-6-4-5-1-9 0-12 3l-2 1 1-2 2-2v-1h-1zm24 4l3 2 2 3c2 3 3 8 3 14l-1 1-1-1v-3c0-5-1-10-4-13l-1-1-1-2zm-10 9v1a294 294 0 0 1-3 10l-5 4-4 4v2l6 1 5-2c3-2 5-5 6-8s0-7-2-10l-1-2-2-1v1zm16 18l-1 3a50 50 0 0 0-2 2l-1-1 1-2 3-2zM53 72v2l-8 6-8 6-6 2-4-2h-1l1-1 3 1h4a174 174 0 0 0 13-9l5-4v-1h1zM36 18l-4 3-9 7-1 1h-1v-1l2-1a481 481 0 0 0 13-9zm11 4h1l-1 1-1 1-9 8h-1v-2l5-3a87 87 0 0 1 6-5zM14 36h-1v-1l2-2 3-1-2 2-2 2zm16-1l2-1-1 2-2 2 1-3zM20 72l4-7 5-5-4 6-5 6zm0 12l-2-2-1-2h1l2 1 1 2-1 1z" id="path-2" fill-opacity="1" type="solidColor" fill="#fbf7ff"></path>
  <text y="115" font-size="5" font-weight="bold" font-family="'Helvetica Neue', Helvetica, Arial-Unicode, Arial, Sans-serif" id="text-3" fill-opacity="0" type="solidColor" fill="#000000">
    Created by Saeful Muslim
  </text>
  <text y="120" font-size="5" font-weight="bold" font-family="'Helvetica Neue', Helvetica, Arial-Unicode, Arial, Sans-serif" id="text-4" fill-opacity="0" type="solidColor" fill="#000000">
    from the Noun Project
  </text>
</svg>
